<?xml version="1.0" standalone="no"?><!DOCTYPE svg PUBLIC "-//W3C//DTD SVG 1.1//EN" "http://www.w3.org/Graphics/SVG/1.1/DTD/svg11.dtd"><svg class="icon" width="200px" height="199.80px" viewBox="0 0 1025 1024" version="1.1" xmlns="http://www.w3.org/2000/svg"><path fill="#333333" d="M668.41918 698.913a93.293 93.293 0 1 0 93.293 93.294 93.072 93.072 0 0 0-93.293-93.294z m0 124.761a31.024 31.024 0 1 1 30.802-31.024 30.802 30.802 0 0 1-30.802 31.024zM1013.22818 846.277l1.55-1.994L713.18218 320.864V88.85h7.534a50.303 50.303 0 0 0 54.957-44.32A50.525 50.525 0 0 0 720.93818 0.21H304.99518a58.502 58.502 0 0 0-42.547 15.512 40.774 40.774 0 0 0-12.41 28.808 50.303 50.303 0 0 0 54.736 44.32h7.534v232.68L19.79718 831.207l-3.103 7.092A126.977 126.977 0 0 0 0.07418 898.13 121.88 121.88 0 0 0 115.52818 1024h806.4a122.545 122.545 0 0 0 102.823-126.09 126.09 126.09 0 0 0-11.523-51.633z m-77.782 51.854a37.229 37.229 0 0 1-22.16 37.008H115.52818c-13.74 0-25.928-17.285-25.928-37.23a41.66 41.66 0 0 1 7.756-22.16c2.216-3.988 3.768-7.977 4.876-10.414l195.672-340.599h430.125l198.11 344.366a47.422 47.422 0 0 0 3.546 9.307 45.428 45.428 0 0 1 5.761 19.722zM634.29218 361.861l42.99 74.457H349.09518l41.882-74.014a73.571 73.571 0 0 0 10.415-37.45V88.85h222.708v235.56a75.565 75.565 0 0 0 10.193 37.45zM450.36518 574.153a62.491 62.491 0 1 0 62.27 62.49 62.491 62.491 0 0 0-62.27-62.49z" /></svg>